<?xml version="1.0" standalone="no"?>
<!DOCTYPE svg PUBLIC "-//W3C//DTD SVG 20010904//EN"
 "http://www.w3.org/TR/2001/REC-SVG-20010904/DTD/svg10.dtd">
<svg version="1.0" xmlns="http://www.w3.org/2000/svg"
 width="1365.000000pt" height="1365.000000pt" viewBox="0 0 1365.000000 1365.000000"
 preserveAspectRatio="xMidYMid meet">

<g transform="translate(0.000000,1365.000000) scale(0.100000,-0.100000)"
fill="#000000" stroke="none">
<path d="M6580 9960 c-417 -37 -819 -189 -1185 -448 -99 -71 -366 -335 -467
-462 -232 -294 -418 -736 -458 -1090 -16 -137 -16 -518 -1 -645 48 -391 237
-838 475 -1120 358 -425 739 -682 1221 -824 173 -51 571 -90 786 -77 280 17
590 101 864 236 591 289 1023 793 1213 1415 84 274 108 491 92 832 -10 220
-28 329 -83 508 -169 549 -498 992 -964 1297 -294 193 -632 322 -949 362 -150
19 -420 27 -544 16z m520 -225 c343 -48 723 -213 995 -430 185 -148 401 -383
504 -548 145 -234 272 -587 302 -843 16 -130 6 -539 -15 -664 -40 -235 -154
-529 -288 -744 -320 -510 -797 -836 -1423 -972 -104 -22 -476 -31 -642 -15
-326 32 -692 176 -997 392 -101 72 -306 265 -389 367 -222 270 -392 635 -448
957 -20 113 -23 166 -23 405 -1 267 0 279 28 404 92 419 268 757 546 1049 304
320 698 537 1140 627 134 27 131 27 377 29 154 1 257 -4 333 -14z"/>
<path d="M6535 9635 c-473 -73 -862 -270 -1188 -600 -270 -273 -444 -595 -528
-976 -27 -124 -50 -312 -39 -323 4 -4 103 -11 219 -14 l212 -5 -3 -81 -3 -81
-207 -6 c-113 -4 -211 -10 -217 -14 -26 -16 31 -341 94 -532 223 -677 791
-1193 1480 -1343 97 -21 287 -49 333 -50 l22 0 0 215 0 216 88 -3 87 -3 3
-214 2 -213 58 6 c106 13 286 47 374 71 569 160 1029 540 1277 1055 123 254
202 569 193 768 l-2 42 -204 0 -203 0 -7 46 c-3 26 -6 64 -6 85 l0 39 215 0
215 0 0 53 c0 190 -94 536 -204 757 -223 444 -615 797 -1101 990 -137 55 -487
127 -575 118 l-35 -3 -3 -203 -2 -203 -77 3 c-55 2 -78 7 -84 18 -4 8 -12 101
-16 205 l-8 190 -35 2 c-19 1 -75 -5 -125 -12z m1120 -247 c25 -12 45 -26 45
-31 0 -11 -79 -157 -85 -157 -11 0 -95 56 -95 63 0 17 75 147 85 147 2 0 25
-10 50 -22z m-1783 -65 c22 -26 68 -108 68 -121 0 -16 -78 -55 -96 -48 -8 3
-29 35 -46 72 l-33 66 30 24 c36 28 56 30 77 7z m1154 -378 c190 -33 419 -130
569 -242 78 -59 122 -100 114 -107 -19 -16 -250 -166 -256 -166 -5 0 -38 21
-74 48 -141 102 -275 152 -470 174 -119 13 -255 3 -379 -28 -93 -23 -232 -93
-324 -163 -44 -34 -87 -61 -96 -61 -26 0 -245 134 -248 152 -5 27 138 152 253
220 142 84 257 129 420 163 136 29 354 33 491 10z m1114 -222 c-74 -76 -223
-228 -331 -338 -108 -110 -225 -231 -259 -270 -56 -62 -60 -70 -41 -73 17 -3
21 -10 21 -43 0 -24 5 -42 14 -45 10 -4 12 -14 5 -42 -12 -51 -10 -62 5 -28 8
18 12 64 11 122 -2 88 5 116 19 78 3 -9 6 -58 6 -110 0 -88 -3 -103 -44 -210
-54 -140 -94 -204 -160 -256 -28 -22 -55 -47 -60 -55 -16 -29 10 -32 63 -8 71
34 78 32 42 -12 -17 -21 -31 -47 -31 -58 0 -32 -27 -63 -63 -70 -17 -4 -39
-13 -47 -20 -39 -31 -102 -45 -210 -45 -61 0 -110 -4 -110 -9 0 -4 33 -22 73
-39 l72 -31 -72 -1 c-87 0 -194 21 -277 56 -33 14 -73 29 -88 34 -48 15 -33
-15 32 -65 52 -40 73 -65 55 -65 -17 0 -75 32 -109 59 -48 38 -58 39 -45 2 15
-43 43 -64 164 -126 117 -60 153 -85 122 -85 -19 0 -23 -15 -6 -26 6 -4 7 -10
2 -15 -10 -10 -64 13 -83 36 -6 7 -26 17 -43 20 -58 12 -120 57 -223 157 -61
60 -105 95 -109 89 -11 -18 -26 -2 -51 55 -13 29 -32 59 -43 66 -15 9 -17 15
-8 29 14 22 -8 103 -27 96 -8 -3 -11 5 -8 29 6 49 -4 64 -16 24 l-10 -35 -1
33 c-1 46 36 150 70 196 42 57 36 66 -13 21 l-41 -40 28 49 27 49 -67 66 c-39
38 -69 61 -72 54 -2 -7 -20 -22 -40 -34 -19 -12 -42 -37 -49 -56 -8 -19 -34
-53 -57 -77 -70 -71 -122 -139 -124 -163 -1 -12 -7 -32 -14 -44 l-11 -22 -14
24 c-19 35 -18 44 21 100 19 28 35 61 35 73 0 26 15 46 52 69 15 10 30 28 34
42 3 14 36 49 76 81 l71 57 -59 55 c-119 112 -564 556 -560 559 7 7 73 -29
423 -229 183 -105 342 -190 355 -190 13 0 43 7 68 17 38 15 66 16 180 11 341
-16 382 -25 465 -97 l35 -31 56 42 c55 41 55 42 37 62 -10 11 -35 31 -55 44
-27 18 -38 31 -38 49 0 14 5 25 10 25 6 0 10 -3 10 -8 0 -4 16 -16 34 -26 19
-10 45 -29 57 -42 40 -43 4 -64 612 347 217 147 449 299 456 299 3 0 -55 -62
-129 -137z m-2900 -39 c39 -25 72 -49 75 -53 2 -5 -9 -27 -26 -50 l-31 -41
-49 27 c-27 16 -61 37 -76 49 l-27 21 28 47 c15 25 29 46 32 46 2 0 36 -21 74
-46z m3230 -44 c0 -13 -22 -31 -126 -97 -19 -12 -23 -10 -48 27 -40 61 -41 60
69 122 l50 28 28 -32 c15 -18 27 -39 27 -48z m-1903 -206 c-3 -3 -12 -4 -19
-1 -8 3 -5 6 6 6 11 1 17 -2 13 -5z m178 -19 l30 -13 -40 -1 c-50 -1 -115 16
-115 31 0 13 82 2 125 -17z m87 -37 c-7 -7 -12 -8 -12 -2 0 14 12 26 19 19 2
-3 -1 -11 -7 -17z m165 -44 c-3 -3 -12 -4 -19 -1 -8 3 -5 6 6 6 11 1 17 -2 13
-5z m-1195 -122 c48 -47 88 -92 88 -100 0 -8 -13 -58 -29 -111 -52 -172 -56
-198 -56 -366 1 -188 18 -271 91 -424 101 -213 248 -363 469 -476 177 -90 321
-121 515 -111 177 9 291 42 441 128 36 21 72 38 78 38 16 0 231 -108 254 -128
9 -8 17 -21 17 -28 0 -21 -136 -114 -256 -175 -220 -112 -335 -134 -653 -126
-215 5 -271 14 -398 65 -395 159 -686 467 -805 850 -57 184 -76 385 -53 554
21 160 99 414 152 494 20 31 33 24 145 -84z m1208 -13 c0 -5 16 -16 37 -24 53
-22 33 -30 -26 -10 -46 15 -101 62 -101 85 0 5 20 -3 45 -17 25 -13 45 -29 45
-34z m-115 41 c3 -5 1 -10 -4 -10 -6 0 -11 5 -11 10 0 6 2 10 4 10 3 0 8 -4
11 -10z m-595 -409 c0 -12 -41 -63 -47 -57 -5 5 35 66 43 66 2 0 4 -4 4 -9z
m1440 -29 c0 -5 -7 -17 -15 -28 -14 -19 -14 -19 -15 2 0 11 3 24 7 27 9 10 23
9 23 -1z m246 -117 c-22 -17 -36 -19 -36 -7 0 14 12 22 34 22 21 -1 21 -1 2
-15z m-326 -45 c0 -5 -4 -10 -10 -10 -5 0 -10 5 -10 10 0 6 5 10 10 10 6 0 10
-4 10 -10z m-1800 -131 c0 -11 -4 -17 -10 -14 -5 3 -10 15 -10 26 0 11 5 17
10 14 6 -3 10 -15 10 -26z m1706 0 c9 -16 -12 -33 -31 -25 -14 5 -15 9 -5 21
15 18 26 19 36 4z m-26 -53 c0 -2 -7 -9 -15 -16 -12 -10 -15 -10 -15 4 0 9 7
16 15 16 8 0 15 -2 15 -4z m-250 -216 c0 -5 -4 -10 -10 -10 -5 0 -10 5 -10 10
0 6 5 10 10 10 6 0 10 -4 10 -10z m170 -4 c-6 -8 -28 -20 -48 -27 -20 -6 -41
-18 -45 -25 -8 -14 -49 -19 -60 -7 -13 13 60 48 138 66 11 3 22 5 24 6 2 0 -2
-6 -9 -13z m-390 -378 c0 -4 -9 -8 -20 -8 -13 0 -20 7 -20 20 0 11 -4 20 -10
20 -5 0 -10 8 -10 17 0 13 7 10 30 -12 17 -16 30 -32 30 -37z m-110 42 c0 -5
-2 -10 -4 -10 -3 0 -8 5 -11 10 -3 6 -1 10 4 10 6 0 11 -4 11 -10z m-1680
-162 c31 -51 26 -65 -42 -108 -35 -22 -68 -40 -75 -40 -7 0 -26 20 -43 45
l-30 44 77 46 c43 25 81 45 85 45 5 0 17 -15 28 -32z m3137 -7 c33 -21 64 -44
67 -50 9 -13 -31 -91 -46 -91 -13 0 -148 78 -148 86 0 8 31 67 42 82 15 17 18
16 85 -27z m-2609 -592 c47 -34 48 -29 -15 -127 -36 -57 -38 -58 -97 -9 l-28
23 22 45 c28 54 59 99 69 99 4 0 26 -14 49 -31z m1859 -159 c18 -36 33 -71 33
-78 0 -18 -81 -53 -96 -41 -13 11 -78 139 -72 144 18 16 76 45 88 42 8 -1 30
-31 47 -67z"/>
<path d="M7615 8373 c-170 -119 -406 -283 -524 -366 l-214 -150 -60 7 c-32 3
-78 15 -102 25 -41 18 -316 174 -704 400 -99 58 -166 92 -156 79 11 -13 176
-178 367 -368 342 -340 347 -346 353 -393 8 -59 53 -121 119 -162 67 -41 141
-42 209 -1 52 30 101 95 113 150 3 17 13 44 21 60 8 16 189 207 402 425 377
385 498 512 490 510 -2 0 -143 -98 -314 -216z m-734 -629 c25 -23 49 -77 49
-113 0 -61 -65 -121 -132 -121 -81 0 -126 52 -127 146 -1 33 5 46 32 71 17 17
39 33 47 37 29 11 110 -1 131 -20z"/>
<path d="M6520 8120 c0 -5 5 -10 10 -10 6 0 10 5 10 10 0 6 -4 10 -10 10 -5 0
-10 -4 -10 -10z"/>
<path d="M6545 8051 c8 -13 62 -24 77 -15 8 5 6 10 -8 15 -27 11 -76 11 -69 0z"/>
<path d="M7460 7993 c0 -28 5 -55 10 -58 13 -8 13 75 0 95 -7 11 -10 0 -10
-37z"/>
<path d="M7404 7968 c-48 -56 -65 -90 -62 -121 2 -19 8 -31 16 -29 7 1 12 -8
12 -22 0 -14 4 -27 10 -31 18 -11 39 40 45 110 3 39 8 80 11 93 2 12 1 22 -4
22 -5 0 -17 -10 -28 -22z"/>
<path d="M6391 7439 c-2 -43 11 -119 20 -119 12 0 10 35 -6 95 -9 35 -13 42
-14 24z"/>
<path d="M3828 4485 c-73 -24 -167 -93 -220 -163 -65 -85 -81 -145 -76 -281 3
-92 7 -114 32 -164 39 -80 120 -160 199 -198 78 -36 212 -55 282 -39 61 14
171 70 218 112 l38 33 -50 49 -50 49 -41 -33 c-147 -117 -361 -83 -440 70 -63
124 -43 266 51 358 67 66 92 76 189 76 94 0 123 -11 197 -70 l42 -34 41 57 41
58 -37 33 c-21 18 -68 47 -103 65 -58 28 -75 32 -165 34 -68 2 -116 -2 -148
-12z"/>
<path d="M6644 4476 c-154 -57 -266 -198 -288 -361 -9 -64 15 -181 51 -255 61
-121 191 -213 323 -226 85 -8 197 8 257 38 66 32 162 131 198 203 29 58 30 65
29 191 -1 118 -3 135 -27 187 -87 191 -345 297 -543 223z m271 -146 c117 -51
183 -219 141 -362 -20 -70 -88 -149 -148 -173 -54 -21 -174 -21 -225 0 -48 20
-109 78 -136 130 -28 55 -35 177 -13 241 34 101 103 164 197 184 56 11 131 3
184 -20z"/>
<path d="M8737 4490 c-110 -28 -236 -133 -285 -237 -25 -53 -27 -68 -27 -183
0 -121 1 -128 32 -191 85 -172 276 -271 461 -239 70 12 168 54 216 91 47 37
103 116 126 175 16 44 21 80 21 156 0 124 -15 171 -82 261 -88 117 -184 166
-334 173 -49 2 -107 -1 -128 -6z m246 -168 c96 -52 137 -133 137 -271 0 -59
-6 -87 -24 -126 -28 -60 -54 -85 -125 -121 -144 -71 -319 0 -381 155 -20 50
-18 156 4 220 20 59 84 137 126 153 86 35 188 31 263 -10z"/>
<path d="M9625 4470 c-31 -16 -65 -40 -76 -52 -105 -123 -83 -296 46 -361 17
-8 77 -29 135 -47 169 -52 210 -79 210 -140 0 -63 -50 -92 -157 -91 -81 1
-150 25 -216 75 l-33 26 -21 -28 c-11 -15 -27 -41 -36 -59 -17 -32 -17 -32 16
-56 92 -70 215 -104 341 -94 96 7 148 30 200 88 73 81 85 183 31 269 -36 56
-81 82 -240 139 -150 54 -185 78 -185 131 0 18 11 39 30 59 54 53 131 53 247
1 36 -17 72 -30 79 -30 17 0 64 68 64 92 0 22 -95 72 -177 93 -31 8 -90 15
-129 15 -61 0 -81 -5 -129 -30z"/>
<path d="M4503 4478 c-4 -7 -9 -199 -11 -425 l-4 -413 76 0 76 0 1 168 c1 92
1 170 1 173 -1 9 146 19 281 19 l117 0 0 -180 0 -180 80 0 80 0 0 123 c0 68
-3 260 -7 426 l-6 302 -74 -2 -73 -2 0 -179 0 -180 -185 4 c-134 2 -188 7
-197 16 -9 9 -14 60 -16 177 l-3 165 -64 0 c-40 0 -67 -5 -72 -12z"/>
<path d="M5484 4483 c-9 -6 -14 -131 -19 -425 l-8 -418 87 0 87 0 -3 145 -3
146 95 -3 94 -3 95 -142 94 -143 88 0 c49 0 89 2 89 5 0 3 -43 70 -96 149 -53
80 -93 149 -89 155 3 6 23 20 43 30 49 25 76 56 102 114 66 148 15 294 -127
363 -56 28 -59 28 -287 32 -127 2 -236 -1 -242 -5z m468 -159 c41 -21 61 -67
56 -130 -5 -57 -25 -89 -68 -107 -14 -6 -90 -13 -170 -16 l-146 -6 2 30 c1 17
2 81 3 144 l1 114 147 -8 c95 -4 158 -12 175 -21z"/>
<path d="M8047 4483 c-3 -5 -8 -133 -12 -286 l-7 -277 -82 103 c-44 57 -142
183 -216 280 l-135 177 -74 0 -74 0 8 -412 c4 -227 9 -416 12 -420 5 -9 79
-10 111 -2 l22 6 0 274 c0 167 4 274 10 274 13 0 104 -110 285 -348 l160 -211
65 0 65 -1 -3 425 -2 425 -65 0 c-35 0 -66 -3 -68 -7z"/>
</g>
</svg>
